<svg width="75" height="75" viewBox="0 0 75 75" fill="none" xmlns="http://www.w3.org/2000/svg">
<g clip-path="url(#clip0)">
<path d="M66.2077 50.0845C64.1918 55.5479 61.1431 60.2984 57.1451 64.2025C52.5944 68.6462 46.6354 72.1773 39.4336 74.6962C39.1973 74.7786 38.9507 74.8461 38.7029 74.8959C38.3756 74.9605 38.0426 74.9954 37.7125 75H37.6478C37.2959 75 36.9423 74.9645 36.5915 74.8959C36.3437 74.8461 36.1005 74.7786 35.8654 74.6979C28.655 72.183 22.6886 68.6537 18.1333 64.2099C14.1336 60.3058 11.0855 55.5582 9.07244 50.0948C5.41204 40.1613 5.62033 29.2185 5.78798 20.4248L5.79084 20.2898C5.8246 19.5636 5.84635 18.8009 5.85836 17.9586C5.91959 13.8233 9.20748 10.4021 13.3434 10.1715C21.9665 9.69025 28.6373 6.87786 34.337 1.32233L34.3868 1.27655C35.3332 0.408514 36.5257 -0.0172063 37.7125 0.000532164C38.8569 0.0154095 39.9967 0.440558 40.9094 1.27655L40.958 1.32233C46.6589 6.87786 53.3296 9.69025 61.9528 10.1715C66.0887 10.4021 69.3766 13.8233 69.4378 17.9586C69.4498 18.8066 69.4715 19.5682 69.5053 20.2898L69.507 20.347C69.6741 29.1572 69.8812 40.1218 66.2077 50.0845Z" fill="url(#paint0_linear)"/>
<path d="M66.2076 50.0841C64.1917 55.5476 61.143 60.298 57.145 64.2022C52.5942 68.6459 46.6353 72.177 39.4335 74.6958C39.1972 74.7782 38.9506 74.8457 38.7028 74.8955C38.3755 74.9602 38.0425 74.9951 37.7123 74.9997V0.000183105C38.8568 0.0150605 39.9966 0.440209 40.9093 1.2762L40.9579 1.32198C46.6588 6.87752 53.3295 9.6899 61.9527 10.1711C66.0886 10.4017 69.3764 13.8229 69.4377 17.9583C69.4497 18.8063 69.4714 19.5679 69.5052 20.2894L69.5069 20.3467C69.674 29.1569 69.8811 40.1215 66.2076 50.0841Z" fill="white"/>
<path d="M56.3382 37.4999C56.3382 47.7841 47.988 56.1555 37.7123 56.1921H37.6465C27.3405 56.1921 18.9543 47.8064 18.9543 37.4999C18.9543 27.1939 27.3405 18.8082 37.6465 18.8082H37.7123C47.988 18.8448 56.3382 27.2162 56.3382 37.4999Z" fill="url(#paint1_linear)"/>
<g clip-path="url(#clip1)">
<path d="M42.0768 36.9991L46.1545 32.9213C47.2805 31.7953 47.2805 29.9695 46.1545 28.8435C45.0286 27.7175 43.2028 27.7175 42.0768 28.8435L37.999 32.9213L33.9213 28.8436C32.7953 27.7176 30.9695 27.7176 29.8435 28.8436C28.7175 29.9696 28.7175 31.7953 29.8435 32.9213L33.9213 36.9991L29.8435 41.0768C28.7175 42.2028 28.7175 44.0286 29.8435 45.1546C30.9695 46.2806 32.7953 46.2806 33.9213 45.1546L37.999 41.0768L42.0768 45.1546C43.2027 46.2806 45.0285 46.2806 46.1545 45.1546C47.2805 44.0286 47.2805 42.2028 46.1545 41.0768L42.0768 36.9991Z" fill="white"/>
</g>
</g>
<defs>
<linearGradient id="paint0_linear" x1="37.6472" y1="0" x2="37.6472" y2="75" gradientUnits="userSpaceOnUse">
<stop stop-color="white"/>
</linearGradient>
<linearGradient id="paint1_linear" x1="37.6462" y1="18.8082" x2="37.6462" y2="56.1921" gradientUnits="userSpaceOnUse">
<stop stop-color="#FF0000"/>
<stop offset="0.480461" stop-color="#FF0000" stop-opacity="0.903908"/>
<stop offset="1" stop-color="#FF0000" stop-opacity="0.8"/>
</linearGradient>
<clipPath id="clip0">
<rect width="75" height="75" fill="white"/>
</clipPath>
<clipPath id="clip1">
<rect width="18" height="18" fill="white" transform="translate(29 28)"/>
</clipPath>
</defs>
</svg>
