<svg width="25" height="25" viewBox="0 0 25 25" fill="none" xmlns="http://www.w3.org/2000/svg">
<g opacity="0.25">
<g clip-path="url(#clip0)">
<path d="M6.14209 10.0367C6.49608 9.12619 6.43846 8.04542 5.74772 7.35463L4.50923 6.11606L3.70122 5.30806C3.26769 4.87447 2.55189 4.90452 2.20302 5.40875C0.771111 7.47828 0 9.92979 0 12.5C0 15.0701 0.771067 17.5215 2.20282 19.5909C2.55167 20.0951 3.26744 20.1252 3.70098 19.6917L4.50898 18.8837L5.74755 17.6452C6.43838 16.9545 6.49606 15.8737 6.14205 14.9631C5.8449 14.1988 5.68179 13.3681 5.68179 12.5C5.68179 11.6318 5.84491 10.8011 6.14209 10.0367Z" fill="white"/>
<path d="M22.7971 5.40873C22.4482 4.90452 21.7324 4.87444 21.2989 5.30801L20.4909 6.11602L18.0997 8.50734C18.0751 8.53193 18.0726 8.57018 18.0925 8.59868C18.8944 9.74639 19.3183 11.0954 19.3184 12.4999C19.3184 13.3681 19.1553 14.1989 18.8581 14.9633C18.5041 15.8738 18.5618 16.9545 19.2525 17.6453L20.491 18.8838L21.299 19.6918C21.7326 20.1254 22.4484 20.0953 22.7972 19.5911C24.229 17.5216 25 15.0701 25 12.4999C24.9999 9.92965 24.2289 7.47821 22.7971 5.40873Z" fill="white"/>
<path d="M12.5 0.000976562C9.92985 0.000976562 7.47854 0.771903 5.40909 2.20373C4.90486 2.55259 4.87478 3.26838 5.30833 3.70195L6.11633 4.50996L7.35476 5.74844C8.04553 6.43924 9.12635 6.49689 10.0369 6.14296C10.8011 5.84594 11.6316 5.68291 12.4995 5.68291C13.3455 5.68291 14.1704 5.83589 14.9525 6.13755C15.8632 6.4888 16.956 6.43776 17.6462 5.74753L18.8837 4.51006L19.6917 3.70195C20.1252 3.26838 20.0951 2.5526 19.5909 2.20374C17.5215 0.771971 15.0701 0.000976562 12.5 0.000976562Z" fill="white"/>
<path d="M19.6918 21.2989L18.8838 20.4909L17.6453 19.2524C16.9545 18.5616 15.8737 18.504 14.9632 18.8579C14.1989 19.1551 13.3682 19.3181 12.5002 19.3181H12.4998C11.6316 19.3181 10.8009 19.155 10.0366 18.8578C9.12605 18.5038 8.04528 18.5615 7.35451 19.2522L6.11597 20.4908L5.30796 21.2988C4.87441 21.7323 4.90447 22.4481 5.40867 22.797C7.47809 24.2289 9.92954 24.9999 12.4998 24.9999C15.0701 24.9999 17.5216 24.2288 19.5911 22.7969C20.0953 22.4481 20.1254 21.7324 19.6918 21.2989Z" fill="white"/>
</g>
</g>
<defs>
<clipPath id="clip0">
<rect width="25" height="25" rx="12.5" fill="white"/>
</clipPath>
</defs>
</svg>
