<svg width="25" height="25" viewBox="0 0 25 25" fill="none" xmlns="http://www.w3.org/2000/svg">
<g clip-path="url(#clip0)">
<path d="M9.11462 18.3458V23.1771C9.11462 23.5146 9.33129 23.8135 9.65212 23.9198C9.73233 23.9458 9.81462 23.9583 9.89587 23.9583C10.1396 23.9583 10.375 23.8437 10.525 23.6396L13.3511 19.7937L9.11462 18.3458Z" fill="#1152FD"/>
<path d="M24.6709 0.144762C24.4314 -0.0250298 24.1168 -0.0479464 23.8564 0.0885119L0.418861 12.3281C0.141778 12.4729 -0.0217636 12.7687 0.0011531 13.0802C0.0251114 13.3927 0.232403 13.6593 0.527195 13.7604L7.04282 15.9875L20.9189 4.12289L10.1814 17.0593L21.1012 20.7916C21.1824 20.8187 21.2678 20.8333 21.3532 20.8333C21.4949 20.8333 21.6355 20.7948 21.7595 20.7198C21.9574 20.5989 22.0918 20.3958 22.1262 20.1677L24.9907 0.896845C25.0334 0.605179 24.9105 0.315595 24.6709 0.144762Z" fill="#1152FD"/>
</g>
<defs>
<clipPath id="clip0">
<rect width="25" height="25" fill="white"/>
</clipPath>
</defs>
</svg>
