<svg width="75" height="75" viewBox="0 0 75 75" fill="none" xmlns="http://www.w3.org/2000/svg">
<g clip-path="url(#clip0)">
<path d="M66.2077 50.0845C64.1918 55.5479 61.1431 60.2983 57.1451 64.2025C52.5943 68.6462 46.6354 72.1773 39.4336 74.6961C39.1973 74.7785 38.9507 74.8461 38.7029 74.8958C38.3756 74.9605 38.0426 74.9954 37.7124 75H37.6478C37.2959 75 36.9422 74.9645 36.5915 74.8958C36.3437 74.8461 36.1005 74.7785 35.8653 74.6979C28.655 72.183 22.6886 68.6537 18.1333 64.2099C14.1336 60.3058 11.0854 55.5582 9.07241 50.0948C5.41201 40.1613 5.62029 29.2184 5.78795 20.4248L5.79081 20.2897C5.82457 19.5636 5.84632 18.8009 5.85833 17.9586C5.91956 13.8233 9.20745 10.402 13.3433 10.1714C21.9665 9.69022 28.6372 6.87783 34.337 1.3223L34.3868 1.27652C35.3332 0.408484 36.5257 -0.0172368 37.7124 0.000501647C38.8568 0.015379 39.9967 0.440527 40.9093 1.27652L40.958 1.3223C46.6588 6.87783 53.3296 9.69022 61.9527 10.1714C66.0886 10.402 69.3765 13.8233 69.4378 17.9586C69.4498 18.8066 69.4715 19.5682 69.5053 20.2897L69.507 20.347C69.6741 29.1572 69.8812 40.1218 66.2077 50.0845Z" fill="url(#paint0_linear)"/>
<path d="M66.2075 50.0841C64.1916 55.5475 61.1429 60.298 57.1449 64.2021C52.5942 68.6459 46.6352 72.177 39.4335 74.6958C39.1972 74.7782 38.9505 74.8457 38.7028 74.8955C38.3755 74.9602 38.0424 74.9951 37.7123 74.9996V0.000152588C38.8567 0.01503 39.9965 0.440178 40.9092 1.27617L40.9578 1.32195C46.6587 6.87749 53.3295 9.68987 61.9526 10.1711C66.0885 10.4017 69.3764 13.8229 69.4376 17.9582C69.4496 18.8062 69.4714 19.5678 69.5051 20.2894L69.5069 20.3466C69.6739 29.1569 69.8811 40.1215 66.2075 50.0841Z" fill="white"/>
<path d="M56.3381 37.4998C56.3381 47.7841 47.988 56.1554 37.7123 56.192H37.6465C27.3405 56.192 18.9543 47.8064 18.9543 37.4998C18.9543 27.1938 27.3405 18.8082 37.6465 18.8082H37.7123C47.988 18.8448 56.3381 27.2161 56.3381 37.4998Z" fill="#0046FF"/>
<path d="M56.3381 37.4998C56.3381 47.7841 47.9879 56.1554 37.7123 56.192V18.8082C47.9879 18.8448 56.3381 27.2161 56.3381 37.4998Z" fill="#0046FF"/>
<path d="M46.1303 34.8082L37.712 43.2276L35.893 45.0467C35.4632 45.4764 34.8996 45.691 34.3366 45.691C33.773 45.691 33.2099 45.4764 32.7796 45.0467L28.8686 41.1339C28.0091 40.2745 28.0091 38.8823 28.8686 38.0223C29.7269 37.1628 31.1208 37.1628 31.9802 38.0223L34.3366 40.3786L43.0186 31.6966C43.8781 30.8365 45.272 30.8365 46.1303 31.6966C46.9897 32.556 46.9897 33.9499 46.1303 34.8082Z" fill="white"/>
</g>
<defs>
<linearGradient id="paint0_linear" x1="37.6472" y1="-3.05176e-05" x2="37.6472" y2="75" gradientUnits="userSpaceOnUse">
<stop stop-color="white"/>
</linearGradient>
<clipPath id="clip0">
<rect width="75" height="75" fill="white"/>
</clipPath>
</defs>
</svg>
